<?xml version="1.0" standalone="no"?>
<!DOCTYPE svg PUBLIC "-//W3C//DTD SVG 20010904//EN"
 "http://www.w3.org/TR/2001/REC-SVG-20010904/DTD/svg10.dtd">
<svg version="1.0" xmlns="http://www.w3.org/2000/svg"
 width="512.000000pt" height="512.000000pt" viewBox="0 0 512.000000 512.000000"
 preserveAspectRatio="xMidYMid meet">

<g transform="translate(0.000000,512.000000) scale(0.100000,-0.100000)"
fill="#000000" stroke="none">
<path d="M1668 4301 c-199 -66 -321 -249 -305 -459 18 -232 258 -429 498 -409
166 14 286 135 339 343 24 93 25 150 4 229 -30 117 -111 213 -231 272 -62 31
-83 36 -160 39 -68 3 -101 0 -145 -15z"/>
<path d="M1465 3269 c-200 -26 -428 -122 -603 -253 -303 -229 -552 -605 -570
-861 -4 -61 -2 -72 15 -88 31 -27 60 -10 149 90 43 48 117 128 164 177 199
208 345 285 378 199 6 -16 13 -145 16 -293 6 -338 37 -564 113 -835 62 -224
184 -486 263 -565 25 -25 71 -26 93 -2 15 17 16 38 6 228 -6 115 -8 232 -4
259 24 185 149 226 330 110 31 -20 148 -125 261 -235 207 -201 310 -282 421
-328 84 -36 123 -28 123 23 0 26 -16 54 -73 127 -262 335 -409 593 -467 817
-57 217 -37 509 41 638 54 87 131 107 225 57 58 -31 101 -65 226 -180 105 -98
167 -132 204 -115 37 17 30 50 -41 189 -251 494 -570 764 -989 837 -96 16
-172 17 -281 4z"/>
<path d="M3673 2791 c-115 -29 -243 -141 -282 -246 -58 -155 2 -301 156 -379
68 -34 123 -47 204 -47 105 -1 162 23 235 95 64 64 87 113 100 207 13 95 -49
242 -129 303 -78 59 -200 88 -284 67z"/>
<path d="M4520 2234 c-324 -141 -493 -192 -720 -219 -167 -20 -445 -19 -722 2
-233 18 -270 15 -291 -18 -20 -31 1 -67 67 -114 78 -55 139 -83 325 -147 79
-27 156 -58 171 -68 51 -36 61 -76 70 -269 12 -261 54 -420 135 -510 37 -40
65 -50 94 -32 8 6 18 37 22 75 12 96 25 138 60 185 43 60 101 84 188 79 126
-7 218 -80 292 -234 22 -45 46 -88 54 -94 22 -18 55 -2 70 33 36 90 26 235
-32 467 -50 197 -51 288 -5 378 44 84 87 130 196 206 194 137 286 232 286 296
0 33 -28 60 -61 60 -13 0 -103 -34 -199 -76z"/>
</g>
</svg>
